<svg width="671" height="681" viewBox="0 0 671 681" fill="none" xmlns="http://www.w3.org/2000/svg">
<g clip-path="url(#clip0_11_959)">
<circle cx="42" cy="42" r="42" transform="matrix(-1 0 0 1 495.6 310.8)" fill="#EAC0B3"/>
<path d="M453.6 386.4H310.8V595.312C310.8 595.312 341.4 613.2 382.2 613.2C423 613.2 453.6 583.99 453.6 583.99V386.4Z" fill="#EAC0B3"/>
<path d="M312.384 488.142C312.384 533.373 319.702 529.091 367.268 529.091C414.833 529.091 436.787 492.424 436.787 447.193C436.787 401.962 438.592 361.2 400.198 361.2C291.649 365.2 312.384 442.911 312.384 488.142Z" fill="#C99688"/>
<path d="M219.359 345.233C219.359 420.182 231 512.343 323.4 512.343C415.8 512.343 458.402 420.182 458.402 345.233C478.8 256.2 474.6 151.2 336 151.2C197.4 151.2 219.359 270.285 219.359 345.233Z" fill="#F5D0C5"/>
<rect width="25.2" height="16.8" rx="8.4" transform="matrix(-1 0 0 1 302.4 386.4)" fill="#EAC0B3"/>
</g>
<g clip-path="url(#clip1_11_959)">
<rect width="25.2" height="33.6" rx="12.6" transform="matrix(-1 0 0 1 352.6 331.4)" fill="black"/>
<rect width="25.2" height="33.6" rx="12.6" transform="matrix(-1 0 0 1 268.6 331.4)" fill="black"/>
<g clip-path="url(#clip2_11_959)">
<path d="M344.801 423.8C344.801 419.161 341.04 415.4 336.401 415.4H259.601C254.962 415.4 251.201 419.161 251.201 423.8C251.201 446.996 270.005 465.8 293.201 465.8H302.801C325.997 465.8 344.801 446.996 344.801 423.8Z" fill="#66253C"/>
<path fill-rule="evenodd" clip-rule="evenodd" d="M279.061 463.36C283.479 464.94 288.24 465.8 293.201 465.8H302.801C325.435 465.8 343.887 447.897 344.768 425.479C338.35 423.078 328.824 423.354 319.421 423.627C316.434 423.714 313.459 423.8 310.6 423.8C292.043 423.8 277 436.963 277 453.2C277 456.771 277.728 460.194 279.061 463.36Z" fill="#B03E67"/>
<path d="M335.8 415.4H251.8V423.8C251.8 428.439 255.561 432.2 260.2 432.2H327.4C332.039 432.2 335.8 428.439 335.8 423.8V415.4Z" fill="white"/>
</g>
</g>
<g clip-path="url(#clip3_11_959)">
<g clip-path="url(#clip4_11_959)">
<rect width="336" height="193.2" rx="75.6" transform="matrix(-1 0 0 1 546 588)" fill="#D90429"/>
<path d="M462 571.2H302.4V596.4C302.4 596.4 344.4 604.8 382.2 604.8C420 604.8 462 596.4 462 596.4V571.2Z" fill="#D90429"/>
<path d="M462 571.2H302.4V588C302.4 588 327.6 600.6 382.2 600.6C436.8 600.6 462 588 462 588V571.2Z" fill="#EF233C"/>
<path d="M466.2 579.6C466.2 570.322 458.678 562.8 449.4 562.8H315C305.721 562.8 298.2 570.322 298.2 579.6C298.2 579.6 340.2 588 382.2 588C424.2 588 466.2 579.6 466.2 579.6Z" fill="#D90429"/>
</g>
<circle cx="36.0959" cy="36.0959" r="29.2452" transform="matrix(-1 0 0 1 381.731 311.873)" stroke="black" stroke-width="13.7015"/>
<circle cx="36.0959" cy="36.0959" r="29.2452" transform="matrix(-1 0 0 1 285.821 311.873)" stroke="black" stroke-width="13.7015"/>
<line y1="-6.85075" x2="47.9605" y2="-6.85075" transform="matrix(-0.999891 -0.0147929 -0.0147929 0.999891 320.075 346.836)" stroke="black" stroke-width="13.7015"/>
</g>
<path fill-rule="evenodd" clip-rule="evenodd" d="M361.793 277.609C316.904 292.512 254.682 313.17 189.512 248C157.512 216 301.512 79.9998 417.512 156C508.178 169.432 502.996 223.758 498.998 265.685C498.233 273.701 497.512 281.263 497.512 288C497.512 292.263 496.955 295.453 495.909 297.746C497.195 307.61 497.512 317.482 497.512 324C497.512 341.673 483.185 356 465.512 356C447.839 356 433.512 341.673 433.512 324C415.839 324 401.512 309.673 401.512 292C401.512 289.232 401.863 286.546 402.524 283.984C402.188 283.995 401.851 284 401.512 284C391.722 284 382.959 279.604 377.089 272.678C372.253 274.136 367.146 275.831 361.793 277.609Z" fill="black"/>
<defs>
<clipPath id="clip0_11_959">
<rect width="537.6" height="537.6" fill="white" transform="matrix(-1 0 0 1 604.8 42)"/>
</clipPath>
<clipPath id="clip1_11_959">
<rect width="537.6" height="537.6" rx="268.8" transform="matrix(-1 0 0 1 604.6 71)" fill="white"/>
</clipPath>
<clipPath id="clip2_11_959">
<rect width="537.6" height="537.6" fill="white" transform="matrix(-1 0 0 1 579.4 37.4)"/>
</clipPath>
<clipPath id="clip3_11_959">
<rect width="537.6" height="537.6" fill="white" transform="matrix(-1 0 0 1 604.8 84)"/>
</clipPath>
<clipPath id="clip4_11_959">
<rect width="537.6" height="537.6" fill="white" transform="matrix(-1 0 0 1 604.8 84)"/>
</clipPath>
</defs>
</svg>
