<svg width="92" height="241" viewBox="0 0 92 241" fill="none" xmlns="http://www.w3.org/2000/svg">
<g clip-path="url(#clip0_11_312)">
<path d="M46 57.3219C52.4125 57.3219 53.1719 57.35 55.6938 57.4625C58.0375 57.5656 59.3031 57.9594 60.1469 58.2875C61.2625 58.7188 62.0688 59.2438 62.9031 60.0781C63.7469 60.9219 64.2625 61.7188 64.6938 62.8344C65.0219 63.6781 65.4156 64.9531 65.5188 67.2875C65.6313 69.8187 65.6594 70.5781 65.6594 76.9813C65.6594 83.3938 65.6313 84.1531 65.5188 86.675C65.4156 89.0188 65.0219 90.2844 64.6938 91.1281C64.2625 92.2438 63.7375 93.05 62.9031 93.8844C62.0594 94.7281 61.2625 95.2438 60.1469 95.675C59.3031 96.0031 58.0281 96.3969 55.6938 96.5C53.1625 96.6125 52.4031 96.6406 46 96.6406C39.5875 96.6406 38.8281 96.6125 36.3063 96.5C33.9625 96.3969 32.6969 96.0031 31.8531 95.675C30.7375 95.2438 29.9313 94.7188 29.0969 93.8844C28.2531 93.0406 27.7375 92.2438 27.3063 91.1281C26.9781 90.2844 26.5844 89.0094 26.4813 86.675C26.3688 84.1438 26.3406 83.3844 26.3406 76.9813C26.3406 70.5688 26.3688 69.8094 26.4813 67.2875C26.5844 64.9437 26.9781 63.6781 27.3063 62.8344C27.7375 61.7188 28.2625 60.9125 29.0969 60.0781C29.9406 59.2344 30.7375 58.7188 31.8531 58.2875C32.6969 57.9594 33.9719 57.5656 36.3063 57.4625C38.8281 57.35 39.5875 57.3219 46 57.3219ZM46 53C39.4844 53 38.6688 53.0281 36.1094 53.1406C33.5594 53.2531 31.8063 53.6656 30.2875 54.2562C28.7031 54.875 27.3625 55.6906 26.0313 57.0312C24.6906 58.3625 23.875 59.7031 23.2563 61.2781C22.6656 62.8063 22.2531 64.55 22.1406 67.1C22.0281 69.6687 22 70.4844 22 77C22 83.5156 22.0281 84.3312 22.1406 86.8906C22.2531 89.4406 22.6656 91.1938 23.2563 92.7125C23.875 94.2969 24.6906 95.6375 26.0313 96.9688C27.3625 98.3 28.7031 99.125 30.2781 99.7344C31.8063 100.325 33.55 100.737 36.1 100.85C38.6594 100.962 39.475 100.991 45.9906 100.991C52.5063 100.991 53.3219 100.962 55.8813 100.85C58.4313 100.737 60.1844 100.325 61.7031 99.7344C63.2781 99.125 64.6188 98.3 65.95 96.9688C67.2812 95.6375 68.1063 94.2969 68.7156 92.7219C69.3063 91.1938 69.7188 89.45 69.8313 86.9C69.9438 84.3406 69.9719 83.525 69.9719 77.0094C69.9719 70.4938 69.9438 69.6781 69.8313 67.1188C69.7188 64.5688 69.3063 62.8156 68.7156 61.2969C68.125 59.7031 67.3094 58.3625 65.9688 57.0312C64.6375 55.7 63.2969 54.875 61.7219 54.2656C60.1938 53.675 58.45 53.2625 55.9 53.15C53.3313 53.0281 52.5156 53 46 53Z" fill="#2B2D42"/>
<path d="M46 64.6719C39.1938 64.6719 33.6719 70.1938 33.6719 77C33.6719 83.8062 39.1938 89.3281 46 89.3281C52.8062 89.3281 58.3281 83.8062 58.3281 77C58.3281 70.1938 52.8062 64.6719 46 64.6719ZM46 84.9969C41.5844 84.9969 38.0031 81.4156 38.0031 77C38.0031 72.5844 41.5844 69.0031 46 69.0031C50.4156 69.0031 53.9969 72.5844 53.9969 77C53.9969 81.4156 50.4156 84.9969 46 84.9969Z" fill="#2B2D42"/>
<path d="M61.6937 64.1843C61.6937 65.778 60.4 67.0624 58.8156 67.0624C57.2219 67.0624 55.9375 65.7687 55.9375 64.1843C55.9375 62.5905 57.2313 61.3062 58.8156 61.3062C60.4 61.3062 61.6937 62.5999 61.6937 64.1843Z" fill="#2B2D42"/>
</g>
<g clip-path="url(#clip1_11_312)">
<path fill-rule="evenodd" clip-rule="evenodd" d="M46.0005 141C40.303 141.003 34.7923 143.021 30.4537 146.693C26.1152 150.365 23.2318 155.452 22.3191 161.044C21.4064 166.636 22.5239 172.368 25.4717 177.216C28.4196 182.064 33.0057 185.712 38.4099 187.506C39.6021 187.727 40.0512 186.988 40.0512 186.36C40.0512 185.732 40.0273 183.91 40.0194 181.918C33.3428 183.361 31.932 179.101 31.932 179.101C30.843 176.335 29.2693 175.608 29.2693 175.608C27.0914 174.13 29.4322 174.158 29.4322 174.158C31.8445 174.327 33.1123 176.619 33.1123 176.619C35.2504 180.267 38.7278 179.212 40.0949 178.595C40.3095 177.05 40.9335 175.999 41.621 175.402C36.2877 174.802 30.6841 172.755 30.6841 163.611C30.651 161.239 31.536 158.946 33.156 157.205C32.9096 156.605 32.087 154.178 33.3905 150.883C33.3905 150.883 35.4054 150.243 39.9916 153.329C43.9253 152.259 48.0757 152.259 52.0095 153.329C56.5917 150.243 58.6026 150.883 58.6026 150.883C59.9101 154.171 59.0875 156.597 58.8411 157.205C60.4662 158.946 61.353 161.244 61.317 163.619C61.317 172.782 55.7015 174.802 50.3602 175.39C51.2186 176.133 51.9856 177.584 51.9856 179.812C51.9856 183.005 51.9578 185.574 51.9578 186.36C51.9578 186.996 52.391 187.739 53.6071 187.506C59.0119 185.711 63.5984 182.063 66.5462 177.215C69.4941 172.366 70.611 166.633 69.6972 161.04C68.7835 155.448 65.8986 150.361 61.5587 146.689C57.2187 143.018 51.7067 141.001 46.0085 141H46.0005Z" fill="#2B2D42"/>
<path d="M38.0557 179.951C38.0557 180.144 37.8331 180.31 37.547 180.314C37.2608 180.318 37.0264 180.16 37.0264 179.966C37.0264 179.773 37.2489 179.607 37.535 179.603C37.8212 179.599 38.0557 179.753 38.0557 179.951Z" fill="#2B2D42"/>
<path d="M39.8838 179.646C39.9196 179.84 39.7208 180.041 39.4347 180.089C39.1486 180.136 38.8982 180.022 38.8624 179.832C38.8267 179.642 39.0333 179.437 39.3115 179.386C39.5897 179.334 39.848 179.453 39.8838 179.646Z" fill="#2B2D42"/>
<path d="M36.0923 179.816C36.0327 180.002 35.7625 180.085 35.4922 180.006C35.222 179.927 35.0432 179.706 35.0948 179.516C35.1465 179.326 35.4207 179.239 35.6949 179.326C35.9691 179.413 36.144 179.623 36.0923 179.816Z" fill="#2B2D42"/>
<path d="M34.2921 179.042C34.161 179.188 33.8947 179.148 33.6761 178.951C33.4575 178.753 33.4059 178.485 33.537 178.342C33.6682 178.2 33.9344 178.24 34.161 178.433C34.3875 178.627 34.4312 178.899 34.2921 179.042Z" fill="#2B2D42"/>
<path d="M33.0085 177.714C32.8614 177.817 32.6111 177.714 32.472 177.508C32.4335 177.472 32.4029 177.427 32.382 177.379C32.3611 177.33 32.3503 177.277 32.3503 177.224C32.3503 177.171 32.3611 177.118 32.382 177.069C32.4029 177.02 32.4335 176.976 32.472 176.939C32.619 176.841 32.8694 176.939 33.0085 177.141C33.1476 177.342 33.1516 177.611 33.0085 177.714Z" fill="#2B2D42"/>
<path d="M32.0626 176.343C31.9803 176.384 31.8861 176.396 31.7962 176.375C31.7063 176.355 31.6263 176.305 31.5698 176.232C31.4148 176.066 31.383 175.837 31.5022 175.734C31.6214 175.631 31.8361 175.679 31.991 175.845C32.146 176.011 32.1818 176.24 32.0626 176.343Z" fill="#2B2D42"/>
<path d="M31.0889 175.264C31.0372 175.383 30.8464 175.418 30.6915 175.335C30.5365 175.252 30.4212 175.098 30.4769 174.976C30.5325 174.853 30.7193 174.821 30.8743 174.904C31.0293 174.987 31.1485 175.145 31.0889 175.264Z" fill="#2B2D42"/>
</g>
<defs>
<clipPath id="clip0_11_312">
<rect width="48" height="48" fill="white" transform="translate(22 53)"/>
</clipPath>
<clipPath id="clip1_11_312">
<rect width="48" height="48" fill="white" transform="translate(22 140)"/>
</clipPath>
</defs>
</svg>
