<svg width="48" height="49" viewBox="0 0 48 49" fill="none" xmlns="http://www.w3.org/2000/svg">
<path d="M12 22.5H20" stroke="#2B2D42" stroke-width="4" stroke-linecap="round" stroke-linejoin="round"/>
<path d="M16 18.5V26.5" stroke="#2B2D42" stroke-width="4" stroke-linecap="round" stroke-linejoin="round"/>
<path d="M30 24.5H30.02" stroke="#2B2D42" stroke-width="4" stroke-linecap="round" stroke-linejoin="round"/>
<path d="M36 20.5H36.02" stroke="#2B2D42" stroke-width="4" stroke-linecap="round" stroke-linejoin="round"/>
<path d="M34.64 10.5H13.36C11.3806 10.5005 9.47157 11.2348 8.00207 12.5609C6.53256 13.8871 5.60689 15.711 5.404 17.68C5.392 17.784 5.384 17.882 5.37 17.984C5.208 19.332 4 29.412 4 32.5C4 34.0913 4.63214 35.6174 5.75736 36.7426C6.88258 37.8679 8.4087 38.5 10 38.5C12 38.5 13 37.5 14 36.5L16.828 33.672C17.578 32.9218 18.5952 32.5002 19.656 32.5H28.344C29.4048 32.5002 30.422 32.9218 31.172 33.672L34 36.5C35 37.5 36 38.5 38 38.5C39.5913 38.5 41.1174 37.8679 42.2426 36.7426C43.3679 35.6174 44 34.0913 44 32.5C44 29.41 42.792 19.332 42.63 17.984C42.616 17.884 42.608 17.784 42.596 17.682C42.3936 15.7126 41.4681 13.8883 39.9986 12.5617C38.529 11.2351 36.6198 10.5005 34.64 10.5Z" stroke="#2B2D42" stroke-width="4" stroke-linecap="round" stroke-linejoin="round"/>
</svg>
